<svg width="14" height="14" viewBox="0 0 14 14" fill="none" xmlns="http://www.w3.org/2000/svg">
<path fill-rule="evenodd" clip-rule="evenodd" d="M5.83334 1.16669C5.36921 1.16669 4.9241 1.35106 4.59591 1.67925C4.26772 2.00744 4.08334 2.45256 4.08334 2.91669V3.50002H2.33334C1.36685 3.50002 0.583344 4.28352 0.583344 5.25002V11.0834C0.583344 12.0499 1.36685 12.8334 2.33334 12.8334H11.6667C12.6332 12.8334 13.4167 12.0499 13.4167 11.0834V5.25002C13.4167 4.28352 12.6332 3.50002 11.6667 3.50002H9.91668V2.91669C9.91668 2.45256 9.7323 2.00744 9.40411 1.67925C9.07593 1.35106 8.63081 1.16669 8.16668 1.16669H5.83334ZM8.75001 3.50002V2.91669C8.75001 2.76198 8.68855 2.6136 8.57916 2.50421C8.46976 2.39481 8.32139 2.33335 8.16668 2.33335H5.83334C5.67863 2.33335 5.53026 2.39481 5.42086 2.50421C5.31147 2.6136 5.25001 2.76198 5.25001 2.91669V3.50002H8.75001ZM5.25001 4.66669H8.75001V11.6667H5.25001V4.66669ZM4.08334 4.66669H2.33334C2.01118 4.66669 1.75001 4.92785 1.75001 5.25002V11.0834C1.75001 11.4055 2.01118 11.6667 2.33334 11.6667H4.08334V4.66669ZM9.91668 11.6667V4.66669H11.6667C11.9888 4.66669 12.25 4.92785 12.25 5.25002V11.0834C12.25 11.4055 11.9888 11.6667 11.6667 11.6667H9.91668Z" fill="#12F7D6"/>
</svg>
